<svg width="100" height="100" viewBox="0 0 100 100" fill="none" xmlns="http://www.w3.org/2000/svg">
<rect width="100" height="100" fill="#229799"/>
<path d="M52.7273 39.75C52.7273 42.6011 51.5779 45.3354 49.5321 47.3514C47.4862 49.3674 44.7115 50.5 41.8182 50.5C38.9249 50.5 36.1501 49.3674 34.1043 47.3514C32.0584 45.3354 30.9091 42.6011 30.9091 39.75C30.9091 36.8989 32.0584 34.1646 34.1043 32.1486C36.1501 30.1326 38.9249 29 41.8182 29C44.7115 29 47.4862 30.1326 49.5321 32.1486C51.5779 34.1646 52.7273 36.8989 52.7273 39.75ZM63.6364 66.625V72H20V66.625C20 60.6856 29.7636 55.875 41.8182 55.875C53.8727 55.875 63.6364 60.6856 63.6364 66.625ZM73.1818 57.2188V61.25H69.0909V57.2188H73.1818ZM67.7273 43.7812H63.6364V42.4375C63.6364 40.2992 64.4984 38.2485 66.0328 36.7365C67.5672 35.2244 69.6482 34.375 71.8182 34.375C73.9881 34.375 76.0692 35.2244 77.6036 36.7365C79.138 38.2485 80 40.2992 80 42.4375C80 45.0444 78.6364 47.49 76.4818 48.9144L75.6636 49.425C74.1091 50.5 73.1818 52.1394 73.1818 53.9938V54.5312H69.0909V53.9938C69.0909 50.7956 70.7273 47.8125 73.4273 46.0656L74.2182 45.555C75.2818 44.8562 75.9091 43.7006 75.9091 42.4375C75.9091 41.3683 75.4781 40.343 74.7109 39.587C73.9437 38.831 72.9032 38.4062 71.8182 38.4062C70.7332 38.4062 69.6927 38.831 68.9255 39.587C68.1583 40.343 67.7273 41.3683 67.7273 42.4375V43.7812Z" fill="white"/>
</svg>
