<svg width="17" height="16" viewBox="0 0 17 16" fill="none" xmlns="http://www.w3.org/2000/svg">
<path fill-rule="evenodd" clip-rule="evenodd" d="M8.84387 0C4.34139 0 0.701569 3.66665 0.701569 8.2028C0.701569 11.8288 3.03373 14.8981 6.26905 15.9844C6.67354 16.0661 6.82171 15.8079 6.82171 15.5908C6.82171 15.4006 6.80838 14.7488 6.80838 14.0696C4.54339 14.5586 4.07172 13.0918 4.07172 13.0918C3.70772 12.1411 3.16839 11.8968 3.16839 11.8968C2.42706 11.3943 3.22239 11.3943 3.22239 11.3943C4.04472 11.4486 4.47622 12.2363 4.47622 12.2363C5.20405 13.4856 6.37688 13.1326 6.84871 12.9153C6.91604 12.3856 7.13188 12.0189 7.36104 11.8153C5.55455 11.6251 3.65389 10.919 3.65389 7.76813C3.65389 6.8718 3.97722 6.13847 4.48955 5.56814C4.40872 5.36448 4.12555 4.52231 4.57055 3.39515C4.57055 3.39515 5.25805 3.17782 6.80821 4.23715C7.47189 4.05759 8.15633 3.96625 8.84387 3.96548C9.53137 3.96548 10.2322 4.06065 10.8794 4.23715C12.4297 3.17782 13.1172 3.39515 13.1172 3.39515C13.5622 4.52231 13.2788 5.36448 13.198 5.56814C13.7238 6.13847 14.0338 6.8718 14.0338 7.76813C14.0338 10.919 12.1332 11.6115 10.3132 11.8153C10.6099 12.0733 10.8659 12.5621 10.8659 13.3363C10.8659 14.4363 10.8525 15.3191 10.8525 15.5906C10.8525 15.8079 11.0009 16.0661 11.4052 15.9846C14.6405 14.8979 16.9727 11.8288 16.9727 8.2028C16.986 3.66665 13.3328 0 8.84387 0Z" fill="#229799"/>
</svg>
