<svg width="17" height="16" viewBox="0 0 17 16" fill="none" xmlns="http://www.w3.org/2000/svg">
<path d="M7.75227 9.22045C8.10715 9.55802 8.10715 10.112 7.75227 10.4496C7.4147 10.7871 6.86073 10.7871 6.52316 10.4496C4.83531 8.7617 4.83531 6.01785 6.52316 4.33L9.58727 1.26589C11.2751 -0.421964 14.019 -0.421964 15.7068 1.26589C17.3947 2.95375 17.3947 5.69759 15.7068 7.38545L14.4171 8.67514C14.4258 7.96538 14.3133 7.25561 14.0709 6.58047L14.4777 6.165C15.4991 5.15229 15.4991 3.50771 14.4777 2.495C13.465 1.47363 11.8204 1.47363 10.8077 2.495L7.75227 5.55045C6.7309 6.56316 6.7309 8.20774 7.75227 9.22045ZM10.1932 5.55045C10.5307 5.21288 11.0847 5.21288 11.4223 5.55045C13.1101 7.2383 13.1101 9.98215 11.4223 11.67L8.35817 14.7341C6.67031 16.422 3.92646 16.422 2.23861 14.7341C0.550754 13.0463 0.550754 10.3024 2.23861 8.61455L3.5283 7.32486C3.51965 8.03462 3.63217 8.74439 3.87453 9.42818L3.46771 9.835C2.44634 10.8477 2.44634 12.4923 3.46771 13.505C4.48043 14.5264 6.125 14.5264 7.13772 13.505L10.1932 10.4496C11.2145 9.43684 11.2145 7.79226 10.1932 6.77955C9.83828 6.44198 9.83828 5.88802 10.1932 5.55045Z" fill="#229799"/>
</svg>
