<svg width="100" height="100" viewBox="0 0 100 100" fill="none" xmlns="http://www.w3.org/2000/svg">
<rect width="100" height="100" rx="16" fill="#229799"/>
<path d="M34.9193 70C32.267 70 29.7707 69.6904 27.4304 69.0711C25.1291 68.4906 23.1009 67.581 21.3457 66.3425L23.4519 61.2917C24.5441 61.9884 25.6947 62.5689 26.9038 63.0334C28.113 63.5365 29.3416 63.9042 30.5898 64.1364C31.8379 64.3687 33.0861 64.4848 34.3343 64.4848C36.9476 64.4848 38.8978 63.8462 40.185 62.5689C41.5111 61.3304 42.1742 59.4727 42.1742 56.9956V51.7707H42.7008C42.1157 53.7446 40.8871 55.3314 39.0148 56.5312C37.1816 57.6923 35.0948 58.2729 32.7546 58.2729C30.1802 58.2729 27.9375 57.6923 26.0262 56.5312C24.115 55.3314 22.6328 53.6672 21.5797 51.5385C20.5266 49.4098 20 46.9328 20 44.1074C20 41.2821 20.5266 38.8244 21.5797 36.7344C22.6328 34.6057 24.115 32.9608 26.0262 31.7997C27.9375 30.5999 30.1802 30 32.7546 30C35.1729 30 37.2791 30.5999 39.0733 31.7997C40.9066 32.9608 42.0962 34.5089 42.6423 36.4441H42.1742V30.5806H49.3121V56.1248C49.3121 59.1824 48.766 61.7368 47.6739 63.7881C46.5817 65.8781 44.9631 67.4262 42.8178 68.4325C40.6725 69.4775 38.0397 70 34.9193 70ZM34.7438 52.7576C37.0061 52.7576 38.8003 51.9836 40.1265 50.4354C41.4526 48.8873 42.1157 46.7779 42.1157 44.1074C42.1157 41.4369 41.4526 39.3469 40.1265 37.8374C38.8003 36.2893 37.0061 35.5152 34.7438 35.5152C32.4815 35.5152 30.6873 36.2893 29.3611 37.8374C28.035 39.3469 27.3719 41.4369 27.3719 44.1074C27.3719 46.7779 28.035 48.8873 29.3611 50.4354C30.6873 51.9836 32.4815 52.7576 34.7438 52.7576Z" fill="white"/>
<path d="M70.1123 59.5501C67.1089 59.5501 64.4956 58.9502 62.2723 57.7504C60.0491 56.5119 58.3328 54.7702 57.1237 52.5254C55.9146 50.2806 55.31 47.6488 55.31 44.6299C55.31 41.611 55.9146 39.0179 57.1237 36.8505C58.3328 34.6444 60.0491 32.9608 62.2723 31.7997C64.4956 30.5999 67.1089 30 70.1123 30C71.9455 30 73.7592 30.2903 75.5535 30.8708C77.3477 31.4514 78.8299 32.2642 80 33.3091L77.8352 38.3599C76.8211 37.4698 75.6705 36.7925 74.3833 36.328C73.1352 35.8636 71.926 35.6313 70.7559 35.6313C68.2206 35.6313 66.2508 36.4248 64.8466 38.0116C63.4815 39.5597 62.7989 41.7852 62.7989 44.688C62.7989 47.552 63.4815 49.8162 64.8466 51.4804C66.2508 53.106 68.2206 53.9187 70.7559 53.9187C71.887 53.9187 73.0962 53.6865 74.3833 53.2221C75.6705 52.7576 76.8211 52.061 77.8352 51.1321L80 56.2409C78.8299 57.2472 77.3282 58.06 75.4949 58.6792C73.7007 59.2598 71.9065 59.5501 70.1123 59.5501Z" fill="white"/>
</svg>
