<?xml version="1.0" standalone="no"?>
<!DOCTYPE svg PUBLIC "-//W3C//DTD SVG 20010904//EN"
 "http://www.w3.org/TR/2001/REC-SVG-20010904/DTD/svg10.dtd">
<svg version="1.0" xmlns="http://www.w3.org/2000/svg"
 width="700.000000pt" height="700.000000pt" viewBox="0 0 700.000000 700.000000"
 preserveAspectRatio="xMidYMid meet">
<metadata>
Created by potrace 1.14, written by Peter Selinger 2001-2017
</metadata>
<g transform="translate(0.000000,700.000000) scale(0.100000,-0.100000)"
fill="#000000" stroke="none">
<path d="M940 6985 c-474 -75 -854 -458 -925 -932 -22 -147 -22 -4959 0 -5106
72 -478 454 -859 935 -932 144 -22 4957 -22 5103 0 479 72 859 453 932 935 22
142 22 4958 0 5100 -54 360 -283 673 -609 833 -112 55 -202 84 -326 102 -137
21 -4979 20 -5110 0z m1510 -2099 c195 -35 380 -151 470 -293 l30 -47 0 157 0
157 250 0 250 0 0 -954 c0 -622 -4 -981 -11 -1031 -45 -323 -192 -544 -445
-666 -289 -140 -777 -145 -1173 -13 -101 33 -252 105 -301 143 l-24 19 28 69
c15 37 48 116 72 174 l45 105 122 -61 c217 -109 406 -155 632 -155 141 0 230
17 311 58 121 62 188 148 224 286 16 65 20 111 20 259 l0 180 -25 -38 c-73
-106 -147 -171 -269 -232 -114 -57 -201 -76 -361 -77 -270 -2 -452 68 -620
239 -169 171 -257 390 -271 675 -29 555 250 960 719 1045 95 17 234 18 327 1z
m2700 -10 c160 -35 338 -112 414 -179 l36 -32 -71 -165 c-39 -91 -74 -168 -78
-172 -4 -4 -29 8 -56 28 -134 96 -287 146 -445 145 -62 0 -128 -6 -163 -15
-185 -50 -308 -176 -362 -371 -26 -93 -32 -331 -10 -436 37 -186 139 -332 275
-396 84 -40 149 -53 264 -53 156 0 321 55 444 150 46 35 53 38 59 23 4 -10 37
-90 75 -178 l69 -160 -28 -23 c-45 -37 -153 -97 -226 -126 -284 -112 -639
-111 -909 4 -388 165 -606 585 -560 1073 15 156 41 258 98 377 138 289 401
471 750 519 97 14 335 6 424 -13z"/>
<path d="M2281 4494 c-82 -22 -147 -62 -211 -130 -104 -112 -150 -248 -150
-448 0 -68 7 -152 15 -191 34 -158 129 -293 252 -358 82 -42 148 -57 251 -57
144 0 253 43 347 138 109 110 157 248 158 457 2 146 -11 219 -54 314 -62 137
-163 230 -296 271 -79 24 -230 26 -312 4z"/>
</g>
</svg>
